<mxfile host="65bd71144e" modified="2021-03-05T06:54:15.259Z" agent="5.0 (Macintosh; Intel Mac OS X 11_0_1) AppleWebKit/537.36 (KHTML, like Gecko) Code/1.53.2 Chrome/87.0.4280.141 Electron/11.2.1 Safari/537.36" etag="rkHwzhFNpKbyCSZQ_UXG" version="14.2.4" type="embed" pages="5">
    <diagram id="dQNIG8Q27GlIKvFxdfMV" name="file vs block">
        <mxGraphModel dx="861" dy="679" grid="1" gridSize="10" guides="1" tooltips="1" connect="1" arrows="1" fold="1" page="1" pageScale="1" pageWidth="827" pageHeight="1169" background="#ffffff" math="0" shadow="0">
            <root>
                <mxCell id="0"/>
                <mxCell id="1" parent="0"/>
                <mxCell id="2" value="" style="rounded=0;whiteSpace=wrap;html=1;strokeWidth=2;fillColor=#dae8fc;strokeColor=#6c8ebf;" parent="1" vertex="1">
                    <mxGeometry x="160" y="280" width="160" height="160" as="geometry"/>
                </mxCell>
                <mxCell id="3" value="&lt;font style=&quot;font-size: 20px&quot;&gt;Log File&lt;br&gt;&lt;/font&gt;" style="text;html=1;align=center;verticalAlign=middle;resizable=0;points=[];autosize=1;" parent="1" vertex="1">
                    <mxGeometry x="414" y="220" width="90" height="20" as="geometry"/>
                </mxCell>
                <mxCell id="4" value="" style="shape=curlyBracket;whiteSpace=wrap;html=1;rounded=1;strokeWidth=2;rotation=90;" parent="1" vertex="1">
                    <mxGeometry x="450" y="-40" width="20" height="600" as="geometry"/>
                </mxCell>
                <mxCell id="5" value="" style="rounded=0;whiteSpace=wrap;html=1;strokeWidth=2;fillColor=#dae8fc;strokeColor=#6c8ebf;" parent="1" vertex="1">
                    <mxGeometry x="334" y="280" width="160" height="160" as="geometry"/>
                </mxCell>
                <mxCell id="6" value="" style="rounded=0;whiteSpace=wrap;html=1;strokeWidth=2;fillColor=#dae8fc;strokeColor=#6c8ebf;" parent="1" vertex="1">
                    <mxGeometry x="510" y="280" width="160" height="160" as="geometry"/>
                </mxCell>
                <mxCell id="7" value="&lt;font style=&quot;font-size: 20px&quot;&gt;... ...&lt;br&gt;&lt;/font&gt;" style="text;html=1;align=center;verticalAlign=middle;resizable=0;points=[];autosize=1;" parent="1" vertex="1">
                    <mxGeometry x="697" y="340" width="50" height="20" as="geometry"/>
                </mxCell>
                <mxCell id="9" value="&lt;font style=&quot;font-size: 20px&quot;&gt;Block 0&lt;br&gt;&lt;/font&gt;" style="text;html=1;align=center;verticalAlign=middle;resizable=0;points=[];autosize=1;" parent="1" vertex="1">
                    <mxGeometry x="200" y="460" width="80" height="20" as="geometry"/>
                </mxCell>
                <mxCell id="10" value="&lt;font style=&quot;font-size: 20px&quot;&gt;Block 1&lt;br&gt;&lt;/font&gt;" style="text;html=1;align=center;verticalAlign=middle;resizable=0;points=[];autosize=1;" parent="1" vertex="1">
                    <mxGeometry x="374" y="460" width="80" height="20" as="geometry"/>
                </mxCell>
                <mxCell id="11" value="&lt;font style=&quot;font-size: 20px&quot;&gt;Block 2&lt;br&gt;&lt;/font&gt;" style="text;html=1;align=center;verticalAlign=middle;resizable=0;points=[];autosize=1;" parent="1" vertex="1">
                    <mxGeometry x="550" y="460" width="80" height="20" as="geometry"/>
                </mxCell>
            </root>
        </mxGraphModel>
    </diagram>
    <diagram id="fXOmMXj4YmX_HUZREp4D" name="record vs fragment">
        &#xa;        &#xa;        &#xa;        &#xa;&#xa;&#xa;&#xa;
        <mxGraphModel dx="861" dy="679" grid="1" gridSize="10" guides="1" tooltips="1" connect="1" arrows="1" fold="1" page="1" pageScale="1" pageWidth="827" pageHeight="1169" background="#ffffff" math="0" shadow="0">
            &#xa;            &#xa;            &#xa;            &#xa;&#xa;&#xa;&#xa;
            <root>
                &#xa;                &#xa;                &#xa;                &#xa;&#xa;&#xa;&#xa;
                <mxCell id="CwOyHAoWBClPPB-sF8l6-0"/>
                &#xa;                &#xa;                &#xa;                &#xa;&#xa;&#xa;&#xa;
                <mxCell id="CwOyHAoWBClPPB-sF8l6-1" parent="CwOyHAoWBClPPB-sF8l6-0"/>
                &#xa;                &#xa;                &#xa;                &#xa;&#xa;&#xa;&#xa;
                <mxCell id="WEcz3mI1UXbWzvbzAh6m-0" value="&lt;span style=&quot;font-size: 16px&quot;&gt;Full Fragment&lt;/span&gt;" style="rounded=0;whiteSpace=wrap;html=1;strokeWidth=2;fillColor=#ffe6cc;strokeColor=#d79b00;" parent="CwOyHAoWBClPPB-sF8l6-1" vertex="1">
                    &#xa;                    &#xa;                    &#xa;                    &#xa;&#xa;&#xa;&#xa;
                    <mxGeometry x="280" y="200" width="160" height="40" as="geometry"/>
                    &#xa;                    &#xa;                    &#xa;                    &#xa;&#xa;&#xa;&#xa;
                </mxCell>
                &#xa;                &#xa;                &#xa;                &#xa;&#xa;&#xa;&#xa;
                <mxCell id="H-gixUze9QXag6YhXeBz-0" value="&lt;font style=&quot;font-size: 20px&quot;&gt;Single Fragment Record&lt;br&gt;&lt;/font&gt;" style="text;html=1;align=right;verticalAlign=middle;resizable=0;points=[];autosize=1;" parent="CwOyHAoWBClPPB-sF8l6-1" vertex="1">
                    &#xa;                    &#xa;                    &#xa;                    &#xa;&#xa;&#xa;&#xa;
                    <mxGeometry x="40" y="210" width="230" height="20" as="geometry"/>
                    &#xa;                    &#xa;                    &#xa;                    &#xa;&#xa;&#xa;&#xa;
                </mxCell>
                &#xa;                &#xa;                &#xa;                &#xa;&#xa;&#xa;&#xa;
                <mxCell id="H-gixUze9QXag6YhXeBz-1" value="&lt;font style=&quot;font-size: 20px&quot;&gt;Multi Fragment Record&lt;br&gt;&lt;/font&gt;" style="text;html=1;align=right;verticalAlign=middle;resizable=0;points=[];autosize=1;" parent="CwOyHAoWBClPPB-sF8l6-1" vertex="1">
                    &#xa;                    &#xa;                    &#xa;                    &#xa;&#xa;&#xa;&#xa;
                    <mxGeometry x="45" y="370" width="220" height="20" as="geometry"/>
                    &#xa;                    &#xa;                    &#xa;                    &#xa;&#xa;&#xa;&#xa;
                </mxCell>
                &#xa;                &#xa;                &#xa;                &#xa;&#xa;&#xa;&#xa;
                <mxCell id="H-gixUze9QXag6YhXeBz-2" value="&lt;font style=&quot;font-size: 16px&quot;&gt;First Fragment&lt;/font&gt;" style="rounded=0;whiteSpace=wrap;html=1;strokeWidth=2;fillColor=#ffe6cc;strokeColor=#d79b00;" parent="CwOyHAoWBClPPB-sF8l6-1" vertex="1">
                    &#xa;                    &#xa;                    &#xa;                    &#xa;&#xa;&#xa;&#xa;
                    <mxGeometry x="280" y="280" width="160" height="40" as="geometry"/>
                    &#xa;                    &#xa;                    &#xa;                    &#xa;&#xa;&#xa;&#xa;
                </mxCell>
                &#xa;                &#xa;                &#xa;                &#xa;&#xa;&#xa;&#xa;
                <mxCell id="0oJmQu_wwgX_ptt2UDow-0" value="&lt;font style=&quot;font-size: 16px&quot;&gt;Middle Fragment&lt;/font&gt;" style="rounded=0;whiteSpace=wrap;html=1;strokeWidth=2;fillColor=#ffe6cc;strokeColor=#d79b00;" parent="CwOyHAoWBClPPB-sF8l6-1" vertex="1">
                    &#xa;                    &#xa;                    &#xa;                    &#xa;&#xa;&#xa;&#xa;
                    <mxGeometry x="280" y="320" width="160" height="40" as="geometry"/>
                    &#xa;                    &#xa;                    &#xa;                    &#xa;&#xa;&#xa;&#xa;
                </mxCell>
                &#xa;                &#xa;                &#xa;                &#xa;&#xa;&#xa;&#xa;
                <mxCell id="0oJmQu_wwgX_ptt2UDow-1" value="&lt;span style=&quot;font-size: 16px&quot;&gt;Middle Fragment&lt;/span&gt;" style="rounded=0;whiteSpace=wrap;html=1;strokeWidth=2;fillColor=#ffe6cc;strokeColor=#d79b00;" parent="CwOyHAoWBClPPB-sF8l6-1" vertex="1">
                    &#xa;                    &#xa;                    &#xa;                    &#xa;&#xa;&#xa;&#xa;
                    <mxGeometry x="280" y="360" width="160" height="40" as="geometry"/>
                    &#xa;                    &#xa;                    &#xa;                    &#xa;&#xa;&#xa;&#xa;
                </mxCell>
                &#xa;                &#xa;                &#xa;                &#xa;&#xa;&#xa;&#xa;
                <mxCell id="0oJmQu_wwgX_ptt2UDow-2" value="&lt;span style=&quot;font-size: 16px&quot;&gt;Middle Fragment&lt;/span&gt;" style="rounded=0;whiteSpace=wrap;html=1;strokeWidth=2;fillColor=#ffe6cc;strokeColor=#d79b00;" parent="CwOyHAoWBClPPB-sF8l6-1" vertex="1">
                    &#xa;                    &#xa;                    &#xa;                    &#xa;&#xa;&#xa;&#xa;
                    <mxGeometry x="280" y="400" width="160" height="40" as="geometry"/>
                    &#xa;                    &#xa;                    &#xa;                    &#xa;&#xa;&#xa;&#xa;
                </mxCell>
                &#xa;                &#xa;                &#xa;                &#xa;&#xa;&#xa;&#xa;
                <mxCell id="0oJmQu_wwgX_ptt2UDow-3" value="&lt;font style=&quot;font-size: 16px&quot;&gt;Last Fragment&lt;/font&gt;" style="rounded=0;whiteSpace=wrap;html=1;strokeWidth=2;fillColor=#ffe6cc;strokeColor=#d79b00;" parent="CwOyHAoWBClPPB-sF8l6-1" vertex="1">
                    &#xa;                    &#xa;                    &#xa;                    &#xa;&#xa;&#xa;&#xa;
                    <mxGeometry x="280" y="440" width="160" height="40" as="geometry"/>
                    &#xa;                    &#xa;                    &#xa;                    &#xa;&#xa;&#xa;&#xa;
                </mxCell>
                &#xa;                &#xa;                &#xa;                &#xa;&#xa;&#xa;&#xa;
                <mxCell id="uXiBhJkUpiwJW3SLDvEo-0" value="" style="shape=curlyBracket;whiteSpace=wrap;html=1;rounded=1;strokeWidth=2;rotation=-180;" parent="CwOyHAoWBClPPB-sF8l6-1" vertex="1">
                    &#xa;                    &#xa;                    &#xa;                    &#xa;&#xa;&#xa;&#xa;
                    <mxGeometry x="450" y="320" width="20" height="120" as="geometry"/>
                    &#xa;                    &#xa;                    &#xa;                    &#xa;&#xa;&#xa;&#xa;
                </mxCell>
                &#xa;                &#xa;                &#xa;                &#xa;&#xa;&#xa;&#xa;
                <mxCell id="uXiBhJkUpiwJW3SLDvEo-1" value="&lt;div&gt;&lt;span style=&quot;font-size: 20px&quot;&gt;0 .. n&lt;/span&gt;&lt;/div&gt;" style="text;html=1;align=center;verticalAlign=middle;resizable=0;points=[];autosize=1;" parent="CwOyHAoWBClPPB-sF8l6-1" vertex="1">
                    &#xa;                    &#xa;                    &#xa;                    &#xa;&#xa;&#xa;&#xa;
                    <mxGeometry x="470" y="370" width="60" height="20" as="geometry"/>
                    &#xa;                    &#xa;                    &#xa;                    &#xa;&#xa;&#xa;&#xa;
                </mxCell>
                &#xa;                &#xa;                &#xa;                &#xa;&#xa;&#xa;&#xa;
            </root>
            &#xa;            &#xa;            &#xa;            &#xa;&#xa;&#xa;&#xa;
        </mxGraphModel>
        &#xa;        &#xa;        &#xa;        &#xa;&#xa;&#xa;&#xa;
    </diagram>
    <diagram name="fragment vs block" id="wWbwNRw9LU0QNiTlae4H">
        &#xa;
        <mxGraphModel dx="861" dy="679" grid="1" gridSize="10" guides="1" tooltips="1" connect="1" arrows="1" fold="1" page="1" pageScale="1" pageWidth="827" pageHeight="1169" background="#ffffff" math="0" shadow="0">
            &#xa;
            <root>
                &#xa;
                <mxCell id="0HZnqKYObF7xLL45XPN7-0"/>
                &#xa;
                <mxCell id="0HZnqKYObF7xLL45XPN7-1" parent="0HZnqKYObF7xLL45XPN7-0"/>
                &#xa;
                <mxCell id="0HZnqKYObF7xLL45XPN7-2" value="&lt;span style=&quot;font-size: 16px&quot;&gt;Full Fragment&lt;/span&gt;" style="rounded=0;whiteSpace=wrap;html=1;strokeWidth=2;fillColor=#f5f5f5;strokeColor=#666666;fontColor=#333333;" parent="0HZnqKYObF7xLL45XPN7-1" vertex="1">
                    &#xa;
                    <mxGeometry x="280" y="200" width="160" height="40" as="geometry"/>
                    &#xa;
                </mxCell>
                &#xa;
                <mxCell id="0HZnqKYObF7xLL45XPN7-3" value="&lt;font style=&quot;font-size: 20px&quot;&gt;Block x&lt;br&gt;&lt;/font&gt;" style="text;html=1;align=right;verticalAlign=middle;resizable=0;points=[];autosize=1;" parent="0HZnqKYObF7xLL45XPN7-1" vertex="1">
                    &#xa;
                    <mxGeometry x="320" y="370" width="80" height="20" as="geometry"/>
                    &#xa;
                </mxCell>
                &#xa;
                <mxCell id="0HZnqKYObF7xLL45XPN7-5" value="&lt;font style=&quot;font-size: 16px&quot;&gt;First Fragment&lt;/font&gt;" style="rounded=0;whiteSpace=wrap;html=1;strokeWidth=2;fillColor=#f8cecc;strokeColor=#b85450;" parent="0HZnqKYObF7xLL45XPN7-1" vertex="1">
                    &#xa;
                    <mxGeometry x="280" y="320" width="160" height="40" as="geometry"/>
                    &#xa;
                </mxCell>
                &#xa;
                <mxCell id="0HZnqKYObF7xLL45XPN7-6" value="&lt;font style=&quot;font-size: 16px&quot;&gt;Middle Fragment&lt;/font&gt;" style="rounded=0;whiteSpace=wrap;html=1;strokeWidth=2;fillColor=#f8cecc;strokeColor=#b85450;" parent="0HZnqKYObF7xLL45XPN7-1" vertex="1">
                    &#xa;
                    <mxGeometry x="480" y="200" width="160" height="160" as="geometry"/>
                    &#xa;
                </mxCell>
                &#xa;
                <mxCell id="0HZnqKYObF7xLL45XPN7-9" value="&lt;font style=&quot;font-size: 16px&quot;&gt;Last Fragment&lt;/font&gt;" style="rounded=0;whiteSpace=wrap;html=1;strokeWidth=2;fillColor=#f8cecc;strokeColor=#b85450;" parent="0HZnqKYObF7xLL45XPN7-1" vertex="1">
                    &#xa;
                    <mxGeometry x="680" y="200" width="160" height="40" as="geometry"/>
                    &#xa;
                </mxCell>
                &#xa;
                <mxCell id="0HZnqKYObF7xLL45XPN7-12" value="&lt;span style=&quot;font-size: 16px&quot;&gt;Full Fragment&lt;/span&gt;" style="rounded=0;whiteSpace=wrap;html=1;strokeWidth=2;fillColor=#dae8fc;strokeColor=#6c8ebf;" parent="0HZnqKYObF7xLL45XPN7-1" vertex="1">
                    &#xa;
                    <mxGeometry x="280" y="240" width="160" height="40" as="geometry"/>
                    &#xa;
                </mxCell>
                &#xa;
                <mxCell id="0HZnqKYObF7xLL45XPN7-13" value="&lt;span style=&quot;font-size: 16px&quot;&gt;Full Fragment&lt;/span&gt;" style="rounded=0;whiteSpace=wrap;html=1;strokeWidth=2;fillColor=#d5e8d4;strokeColor=#82b366;" parent="0HZnqKYObF7xLL45XPN7-1" vertex="1">
                    &#xa;
                    <mxGeometry x="280" y="280" width="160" height="40" as="geometry"/>
                    &#xa;
                </mxCell>
                &#xa;
                <mxCell id="0HZnqKYObF7xLL45XPN7-14" value="&lt;font style=&quot;font-size: 20px&quot;&gt;Block x+1&lt;br&gt;&lt;/font&gt;" style="text;html=1;align=right;verticalAlign=middle;resizable=0;points=[];autosize=1;" parent="0HZnqKYObF7xLL45XPN7-1" vertex="1">
                    &#xa;
                    <mxGeometry x="510" y="370" width="100" height="20" as="geometry"/>
                    &#xa;
                </mxCell>
                &#xa;
                <mxCell id="Wz-drP5v7XqaI_OFIj_U-0" value="&lt;span style=&quot;font-size: 16px&quot;&gt;... ...&lt;/span&gt;" style="rounded=0;whiteSpace=wrap;html=1;strokeWidth=2;fillColor=#f5f5f5;strokeColor=#666666;fontColor=#333333;" parent="0HZnqKYObF7xLL45XPN7-1" vertex="1">
                    &#xa;
                    <mxGeometry x="680" y="240" width="160" height="120" as="geometry"/>
                    &#xa;
                </mxCell>
                &#xa;
                <mxCell id="Wz-drP5v7XqaI_OFIj_U-1" value="&lt;font style=&quot;font-size: 20px&quot;&gt;Block x+2&lt;br&gt;&lt;/font&gt;" style="text;html=1;align=right;verticalAlign=middle;resizable=0;points=[];autosize=1;" parent="0HZnqKYObF7xLL45XPN7-1" vertex="1">
                    &#xa;
                    <mxGeometry x="710" y="370" width="100" height="20" as="geometry"/>
                    &#xa;
                </mxCell>
                &#xa;
            </root>
            &#xa;
        </mxGraphModel>
        &#xa;
    </diagram>
    <diagram name="fragment" id="3vMD-llU6m5H2Yd9R2HX">
        &#xa;        &#xa;        &#xa;&#xa;&#xa;
        <mxGraphModel dx="861" dy="679" grid="1" gridSize="10" guides="1" tooltips="1" connect="1" arrows="1" fold="1" page="1" pageScale="1" pageWidth="827" pageHeight="1169" background="#ffffff" math="0" shadow="0">
            &#xa;            &#xa;            &#xa;&#xa;&#xa;
            <root>
                &#xa;                &#xa;                &#xa;&#xa;&#xa;
                <mxCell id="UnMFiVKTBid4qEEtKHwY-0"/>
                &#xa;                &#xa;                &#xa;&#xa;&#xa;
                <mxCell id="UnMFiVKTBid4qEEtKHwY-1" parent="UnMFiVKTBid4qEEtKHwY-0"/>
                &#xa;                &#xa;                &#xa;&#xa;&#xa;
                <mxCell id="UnMFiVKTBid4qEEtKHwY-2" value="&lt;font style=&quot;font-size: 16px&quot;&gt;Header&lt;/font&gt;" style="rounded=0;whiteSpace=wrap;html=1;strokeWidth=2;fillColor=#f8cecc;strokeColor=#b85450;" parent="UnMFiVKTBid4qEEtKHwY-1" vertex="1">
                    &#xa;                    &#xa;                    &#xa;&#xa;&#xa;
                    <mxGeometry x="280" y="640" width="80" height="40" as="geometry"/>
                    &#xa;                    &#xa;                    &#xa;&#xa;&#xa;
                </mxCell>
                &#xa;                &#xa;                &#xa;&#xa;&#xa;
                <mxCell id="7MPgu_NTfOm7TpDiJjkW-2" value="&lt;font style=&quot;font-size: 16px&quot;&gt;Data&lt;/font&gt;" style="rounded=0;whiteSpace=wrap;html=1;strokeWidth=2;fillColor=#fff2cc;strokeColor=#d6b656;" parent="UnMFiVKTBid4qEEtKHwY-1" vertex="1">
                    &#xa;                    &#xa;                    &#xa;&#xa;&#xa;
                    <mxGeometry x="360" y="640" width="320" height="40" as="geometry"/>
                    &#xa;                    &#xa;                    &#xa;&#xa;&#xa;
                </mxCell>
                &#xa;                &#xa;                &#xa;&#xa;&#xa;
                <mxCell id="7MPgu_NTfOm7TpDiJjkW-3" value="&lt;font style=&quot;font-size: 12px&quot;&gt;4-byte&lt;br&gt;CRC&lt;br&gt;&lt;/font&gt;" style="rounded=0;whiteSpace=wrap;html=1;strokeWidth=2;fillColor=#d5e8d4;strokeColor=#82b366;" parent="UnMFiVKTBid4qEEtKHwY-1" vertex="1">
                    &#xa;                    &#xa;                    &#xa;&#xa;&#xa;
                    <mxGeometry x="180" y="720" width="160" height="40" as="geometry"/>
                    &#xa;                    &#xa;                    &#xa;&#xa;&#xa;
                </mxCell>
                &#xa;                &#xa;                &#xa;&#xa;&#xa;
                <mxCell id="7MPgu_NTfOm7TpDiJjkW-4" value="&lt;font style=&quot;font-size: 12px&quot;&gt;2-byte&lt;br&gt;Length&lt;br&gt;&lt;/font&gt;" style="rounded=0;whiteSpace=wrap;html=1;strokeWidth=2;fillColor=#d5e8d4;strokeColor=#82b366;" parent="UnMFiVKTBid4qEEtKHwY-1" vertex="1">
                    &#xa;                    &#xa;                    &#xa;&#xa;&#xa;
                    <mxGeometry x="340" y="720" width="80" height="40" as="geometry"/>
                    &#xa;                    &#xa;                    &#xa;&#xa;&#xa;
                </mxCell>
                &#xa;                &#xa;                &#xa;&#xa;&#xa;
                <mxCell id="7MPgu_NTfOm7TpDiJjkW-5" value="&lt;font style=&quot;font-size: 12px&quot;&gt;1-byte&lt;br&gt;Type&lt;br&gt;&lt;/font&gt;" style="rounded=0;whiteSpace=wrap;html=1;strokeWidth=2;fillColor=#d5e8d4;strokeColor=#82b366;" parent="UnMFiVKTBid4qEEtKHwY-1" vertex="1">
                    &#xa;                    &#xa;                    &#xa;&#xa;&#xa;
                    <mxGeometry x="420" y="720" width="40" height="40" as="geometry"/>
                    &#xa;                    &#xa;                    &#xa;&#xa;&#xa;
                </mxCell>
                &#xa;                &#xa;                &#xa;&#xa;&#xa;
                <mxCell id="7MPgu_NTfOm7TpDiJjkW-6" value="" style="shape=curlyBracket;whiteSpace=wrap;html=1;rounded=1;strokeWidth=2;rotation=90;" parent="UnMFiVKTBid4qEEtKHwY-1" vertex="1">
                    &#xa;                    &#xa;                    &#xa;&#xa;&#xa;
                    <mxGeometry x="310" y="560" width="20" height="280" as="geometry"/>
                    &#xa;                    &#xa;                    &#xa;&#xa;&#xa;
                </mxCell>
                &#xa;                &#xa;                &#xa;&#xa;&#xa;
            </root>
            &#xa;            &#xa;            &#xa;&#xa;&#xa;
        </mxGraphModel>
        &#xa;        &#xa;        &#xa;&#xa;&#xa;
    </diagram>
    <diagram id="IZlyL9wclulXdniI9TRE" name="gap">
        <mxGraphModel dx="861" dy="679" grid="1" gridSize="10" guides="1" tooltips="1" connect="1" arrows="1" fold="1" page="1" pageScale="1" pageWidth="827" pageHeight="1169" background="#ffffff" math="0" shadow="0">
            <root>
                <mxCell id="ZNNsV0nwYh4lakDR2jdh-0"/>
                <mxCell id="ZNNsV0nwYh4lakDR2jdh-1" parent="ZNNsV0nwYh4lakDR2jdh-0"/>
                <mxCell id="2RZA5A5tHJ3Rw-d4LuQB-0" value="&lt;font style=&quot;font-size: 16px&quot;&gt;Used&lt;/font&gt;" style="rounded=0;whiteSpace=wrap;html=1;strokeWidth=2;fillColor=#dae8fc;strokeColor=#6c8ebf;" parent="ZNNsV0nwYh4lakDR2jdh-1" vertex="1">
                    <mxGeometry x="280" y="280" width="160" height="160" as="geometry"/>
                </mxCell>
                <mxCell id="DnBBVOpG_D9EvvBTzaR2-0" value="&lt;font style=&quot;font-size: 16px&quot;&gt;Gap&lt;/font&gt;" style="rounded=0;whiteSpace=wrap;html=1;strokeWidth=2;fillColor=#f5f5f5;strokeColor=#666666;fontColor=#333333;" parent="ZNNsV0nwYh4lakDR2jdh-1" vertex="1">
                    <mxGeometry x="400" y="420" width="40" height="20" as="geometry"/>
                </mxCell>
                <mxCell id="ddMevLrLR1dOWT4e3bhH-2" value="" style="rounded=0;orthogonalLoop=1;jettySize=auto;html=1;entryX=0.5;entryY=1;entryDx=0;entryDy=0;strokeWidth=2;" parent="ZNNsV0nwYh4lakDR2jdh-1" source="ddMevLrLR1dOWT4e3bhH-0" target="DnBBVOpG_D9EvvBTzaR2-0" edge="1">
                    <mxGeometry relative="1" as="geometry">
                        <mxPoint x="400" y="480" as="targetPoint"/>
                    </mxGeometry>
                </mxCell>
                <mxCell id="ddMevLrLR1dOWT4e3bhH-0" value="&lt;font style=&quot;font-size: 20px&quot;&gt;0x00 0x00 0x00 ... ...&lt;br&gt;&lt;/font&gt;" style="text;html=1;align=right;verticalAlign=middle;resizable=0;points=[];autosize=1;" parent="ZNNsV0nwYh4lakDR2jdh-1" vertex="1">
                    <mxGeometry x="320" y="460" width="200" height="20" as="geometry"/>
                </mxCell>
            </root>
        </mxGraphModel>
    </diagram>
</mxfile>